<mxfile host="app.diagrams.net" modified="2020-08-18T13:33:46.365Z" agent="5.0 (Windows NT 10.0; Win64; x64) AppleWebKit/537.36 (KHTML, like Gecko) Chrome/84.0.4147.125 Safari/537.36 Edg/84.0.522.59" etag="Bco842vl9ZnOtCRt1vNU" version="13.6.2" type="github">
  <diagram id="xUHpELpIG1MArU0y3pQE" name="第 1 页">
    <mxGraphModel dx="1038" dy="500" grid="1" gridSize="10" guides="1" tooltips="1" connect="1" arrows="1" fold="1" page="1" pageScale="1" pageWidth="827" pageHeight="1169" math="0" shadow="0">
      <root>
        <mxCell id="0" />
        <mxCell id="1" parent="0" />
        <mxCell id="cEcS9tivso0cEweqn2bA-1" value="" style="shape=note;whiteSpace=wrap;html=1;backgroundOutline=1;darkOpacity=0.05;" vertex="1" parent="1">
          <mxGeometry x="80" y="50" width="260" height="430" as="geometry" />
        </mxCell>
        <mxCell id="cEcS9tivso0cEweqn2bA-2" value="消息生产者" style="rounded=0;whiteSpace=wrap;html=1;fontSize=20;" vertex="1" parent="1">
          <mxGeometry x="145" y="60" width="130" height="60" as="geometry" />
        </mxCell>
        <mxCell id="cEcS9tivso0cEweqn2bA-3" value="业务逻辑" style="rounded=1;whiteSpace=wrap;html=1;fontSize=20;" vertex="1" parent="1">
          <mxGeometry x="155" y="130" width="110" height="40" as="geometry" />
        </mxCell>
        <mxCell id="cEcS9tivso0cEweqn2bA-4" value="" style="rounded=1;whiteSpace=wrap;html=1;fontSize=20;" vertex="1" parent="1">
          <mxGeometry x="115" y="190" width="190" height="280" as="geometry" />
        </mxCell>
        <mxCell id="cEcS9tivso0cEweqn2bA-5" value="source" style="rounded=0;whiteSpace=wrap;html=1;fontSize=20;" vertex="1" parent="1">
          <mxGeometry x="150" y="235" width="120" height="60" as="geometry" />
        </mxCell>
        <mxCell id="cEcS9tivso0cEweqn2bA-6" value="Channel" style="rounded=0;whiteSpace=wrap;html=1;fontSize=20;" vertex="1" parent="1">
          <mxGeometry x="150" y="320" width="120" height="60" as="geometry" />
        </mxCell>
        <mxCell id="cEcS9tivso0cEweqn2bA-7" value="Binder" style="rounded=0;whiteSpace=wrap;html=1;fontSize=20;" vertex="1" parent="1">
          <mxGeometry x="150" y="400" width="120" height="60" as="geometry" />
        </mxCell>
        <mxCell id="cEcS9tivso0cEweqn2bA-12" value="" style="shape=singleArrow;direction=south;whiteSpace=wrap;html=1;fontSize=20;" vertex="1" parent="1">
          <mxGeometry x="200" y="180" width="20" height="50" as="geometry" />
        </mxCell>
        <mxCell id="cEcS9tivso0cEweqn2bA-13" value="" style="shape=note;whiteSpace=wrap;html=1;backgroundOutline=1;darkOpacity=0.05;" vertex="1" parent="1">
          <mxGeometry x="800" y="50" width="260" height="430" as="geometry" />
        </mxCell>
        <mxCell id="cEcS9tivso0cEweqn2bA-14" value="消息消费者" style="rounded=0;whiteSpace=wrap;html=1;fontSize=20;" vertex="1" parent="1">
          <mxGeometry x="865" y="60" width="130" height="60" as="geometry" />
        </mxCell>
        <mxCell id="cEcS9tivso0cEweqn2bA-15" value="业务逻辑" style="rounded=1;whiteSpace=wrap;html=1;fontSize=20;" vertex="1" parent="1">
          <mxGeometry x="875" y="130" width="110" height="40" as="geometry" />
        </mxCell>
        <mxCell id="cEcS9tivso0cEweqn2bA-16" value="" style="rounded=1;whiteSpace=wrap;html=1;fontSize=20;" vertex="1" parent="1">
          <mxGeometry x="835" y="190" width="190" height="280" as="geometry" />
        </mxCell>
        <mxCell id="cEcS9tivso0cEweqn2bA-17" value="Sink" style="rounded=0;whiteSpace=wrap;html=1;fontSize=20;" vertex="1" parent="1">
          <mxGeometry x="870" y="235" width="120" height="60" as="geometry" />
        </mxCell>
        <mxCell id="cEcS9tivso0cEweqn2bA-18" value="Channel" style="rounded=0;whiteSpace=wrap;html=1;fontSize=20;" vertex="1" parent="1">
          <mxGeometry x="870" y="320" width="120" height="60" as="geometry" />
        </mxCell>
        <mxCell id="cEcS9tivso0cEweqn2bA-19" value="Binder" style="rounded=0;whiteSpace=wrap;html=1;fontSize=20;" vertex="1" parent="1">
          <mxGeometry x="870" y="400" width="120" height="60" as="geometry" />
        </mxCell>
        <mxCell id="cEcS9tivso0cEweqn2bA-20" value="" style="shape=singleArrow;direction=south;whiteSpace=wrap;html=1;fontSize=20;" vertex="1" parent="1">
          <mxGeometry x="920" y="180" width="20" height="50" as="geometry" />
        </mxCell>
        <mxCell id="cEcS9tivso0cEweqn2bA-22" value="MQ组件" style="shape=process;whiteSpace=wrap;html=1;backgroundOutline=1;fontSize=20;" vertex="1" parent="1">
          <mxGeometry x="510" y="370" width="120" height="60" as="geometry" />
        </mxCell>
        <mxCell id="cEcS9tivso0cEweqn2bA-23" value="" style="shape=singleArrow;whiteSpace=wrap;html=1;fontSize=20;" vertex="1" parent="1">
          <mxGeometry x="360" y="380" width="130" height="40" as="geometry" />
        </mxCell>
        <mxCell id="cEcS9tivso0cEweqn2bA-24" value="" style="shape=singleArrow;whiteSpace=wrap;html=1;fontSize=20;" vertex="1" parent="1">
          <mxGeometry x="650" y="380" width="130" height="40" as="geometry" />
        </mxCell>
      </root>
    </mxGraphModel>
  </diagram>
</mxfile>
